<svg xmlns="http://www.w3.org/2000/svg" aria-hidden="true" style="position:absolute;width:0;height:0;overflow:hidden">
  <defs>
    <symbol id="icon-untitled" viewBox="0 0 32 32">
      <path fill="#fff" d="M5.147 23.838a5.02 5.02 0 0 1-2.154-.473c-.665-.315-1.24-.753-1.723-1.313S.44 20.84.23 20.098l2.752-.735c.091.357.252.665.483.924.238.259.511.462.819.609.315.14.637.21.966.21.434 0 .83-.105 1.187-.315.364-.21.651-.494.861-.851.217-.357.326-.753.326-1.187s-.109-.83-.326-1.187a2.335 2.335 0 0 0-.861-.851A2.299 2.299 0 0 0 5.25 16.4c-.532 0-.966.091-1.303.273-.336.175-.588.343-.756.504l-2.416-.735.462-8.047h8.257v2.668H2.813l1.008-.945-.315 5.189-.483-.588c.378-.308.809-.532 1.292-.672s.935-.21 1.355-.21c.952 0 1.789.214 2.511.641a4.426 4.426 0 0 1 1.702 1.744c.413.735.62 1.579.62 2.532s-.249 1.814-.746 2.584a5.535 5.535 0 0 1-1.964 1.828 5.392 5.392 0 0 1-2.647.672zM17.583 23.838c-1.121 0-2.101-.235-2.941-.704a5 5 0 0 1-1.964-1.964c-.469-.84-.704-1.821-.704-2.941v-4.538c0-1.121.235-2.101.704-2.941a5 5 0 0 1 1.964-1.964c.84-.469 1.821-.704 2.941-.704s2.101.235 2.941.704a5 5 0 0 1 1.964 1.964c.469.84.704 1.821.704 2.941v4.538c0 1.121-.235 2.101-.704 2.941a5 5 0 0 1-1.964 1.964c-.84.469-1.821.704-2.941.704zm0-2.71a2.655 2.655 0 0 0 2.332-1.323 2.65 2.65 0 0 0 .357-1.366V13.46a2.655 2.655 0 0 0-1.323-2.332c-.406-.238-.861-.357-1.366-.357a2.652 2.652 0 0 0-2.689 2.689v4.979a2.655 2.655 0 0 0 1.323 2.332 2.65 2.65 0 0 0 1.366.357zM24.966 23.523l-.485-.485 6.511-6.497.485.48-6.512 6.502zm5.057.146c-.32 0-.613-.078-.878-.233a1.835 1.835 0 0 1-.63-.63 1.69 1.69 0 0 1-.238-.882c0-.317.081-.608.242-.873s.375-.477.64-.635c.265-.158.553-.238.863-.238.32 0 .613.079.878.238.265.155.475.365.63.63.158.262.238.554.238.878s-.079.617-.238.882a1.777 1.777 0 0 1-.63.63 1.709 1.709 0 0 1-.878.233zm0-.645c.197 0 .38-.05.548-.15s.302-.233.402-.398c.1-.168.15-.352.15-.553s-.05-.383-.15-.548c-.1-.168-.234-.302-.402-.402s-.351-.15-.548-.15c-.2 0-.385.05-.553.15a1.19 1.19 0 0 0-.402.402c-.1.165-.15.347-.15.548s.05.385.15.553c.103.165.238.297.402.398.168.1.352.15.553.15zm-4.087-3.137c-.32 0-.613-.078-.878-.233a1.824 1.824 0 0 1-.635-.63 1.715 1.715 0 0 1-.233-.882c0-.317.081-.608.242-.873s.375-.477.64-.635c.265-.158.553-.238.863-.238.32 0 .611.079.873.238.265.155.477.365.635.63.158.262.238.554.238.878s-.079.617-.238.882c-.158.262-.37.472-.635.63a1.683 1.683 0 0 1-.873.233zm0-.645c.2 0 .383-.05.548-.15.168-.1.302-.233.402-.398.1-.168.15-.352.15-.553s-.05-.383-.15-.548a1.138 1.138 0 0 0-.402-.402c-.165-.1-.347-.15-.548-.15s-.385.05-.553.15a1.16 1.16 0 0 0-.398.402c-.1.165-.15.347-.15.548s.05.385.15.553c.1.165.233.297.398.398.168.1.352.15.553.15z" style="fill:var(--color1, #fff)"/>
    </symbol>
    <symbol id="icon-book-open-sixth" viewBox="0 0 32 32">
      <path fill="none" stroke="#5c8692" stroke-linecap="round" stroke-linejoin="round" stroke-width="2.667" d="M2.667 4h8A5.332 5.332 0 0 1 16 9.333V28a4.003 4.003 0 0 0-4-4H2.667V4z" style="stroke:var(--color2, #5c8692)"/>
      <path fill="none" stroke="#5c8692" stroke-linecap="round" stroke-linejoin="round" stroke-width="2.667" d="M29.333 4h-8A5.332 5.332 0 0 0 16 9.333V28a4.003 4.003 0 0 1 4-4h9.333V4z" style="stroke:var(--color2, #5c8692)"/>
    </symbol>
    <symbol id="icon-edit-sixth" viewBox="0 0 32 32">
      <path fill="none" stroke="#5c8692" stroke-linecap="round" stroke-linejoin="round" stroke-width="2.667" d="M14.723 5.779H5.779a2.555 2.555 0 0 0-2.555 2.555v17.889a2.555 2.555 0 0 0 2.555 2.556h17.889a2.558 2.558 0 0 0 2.556-2.556v-8.944" style="stroke:var(--color2, #5c8692)"/>
      <path fill="none" stroke="#5c8692" stroke-linecap="round" stroke-linejoin="round" stroke-width="2.667" d="M24.306 3.862a2.712 2.712 0 0 1 3.834 3.834L16.001 19.835l-5.111 1.278 1.278-5.111L24.307 3.863z" style="stroke:var(--color2, #5c8692)"/>
    </symbol>
    <symbol id="icon-fb" viewBox="0 0 32 32">
      <path d="m22.789 17.882.824-5.412h-5.235V8.941c0-1.529.706-2.941 3.059-2.941h2.412V1.353S21.673.941 19.614.941c-4.294 0-7.118 2.647-7.118 7.353v4.176H7.672v5.412h4.824v13.176h5.882V17.882h4.412z"/>
    </symbol>
    <symbol id="icon-fifth-icon" viewBox="0 0 32 32">
      <path fill="#fff" d="M31.555 16 19.099 28.456V3.544h12.456V16zM12.456 16 0 28.456V3.544h12.456V16z" style="fill:var(--color1, #fff)"/>
    </symbol>
    <symbol id="icon-in" viewBox="0 0 32 32">
      <path d="M8.56 30.933V11h-6.2v19.933h6.2zm-3.133-22.6c2 0 3.6-1.667 3.6-3.667 0-1.933-1.6-3.533-3.6-3.533-1.933 0-3.533 1.6-3.533 3.533 0 2 1.6 3.667 3.533 3.667zm26.267 22.6h.067V20c0-5.333-1.2-9.467-7.467-9.467-3 0-5 1.667-5.867 3.2h-.067V11h-5.933v19.933h6.2v-9.867c0-2.6.467-5.067 3.667-5.067s3.267 2.933 3.267 5.267v9.667h6.133z"/>
    </symbol>
    <symbol id="icon-inst" viewBox="0 0 32 32">
      <path fill="#fff" d="M16 8.191c-4.222 0-7.587 3.431-7.587 7.587A7.547 7.547 0 0 0 16 23.365c4.156 0 7.587-3.365 7.587-7.587 0-4.156-3.431-7.587-7.587-7.587zm0 12.535a4.941 4.941 0 0 1-4.948-4.948c0-2.705 2.177-4.882 4.948-4.882a4.87 4.87 0 0 1 4.882 4.882c0 2.771-2.177 4.948-4.882 4.948zm9.632-12.799c0-.99-.792-1.781-1.781-1.781s-1.781.792-1.781 1.781.792 1.781 1.781 1.781c.99 0 1.781-.792 1.781-1.781zm5.014 1.781c-.132-2.375-.66-4.486-2.375-6.201s-3.826-2.243-6.201-2.375C19.629 1 12.306 1 9.865 1.132c-2.375.132-4.42.66-6.201 2.375-1.715 1.715-2.243 3.826-2.375 6.201-.132 2.441-.132 9.764 0 12.205.132 2.375.66 4.42 2.375 6.201 1.781 1.715 3.826 2.243 6.201 2.375 2.441.132 9.764.132 12.205 0 2.375-.132 4.486-.66 6.201-2.375 1.715-1.781 2.243-3.826 2.375-6.201.132-2.441.132-9.764 0-12.205zm-3.167 14.778c-.462 1.319-1.517 2.309-2.771 2.837-1.979.792-6.597.594-8.708.594-2.177 0-6.795.198-8.708-.594a5.003 5.003 0 0 1-2.837-2.837c-.792-1.913-.594-6.531-.594-8.708 0-2.111-.198-6.729.594-8.708a5.09 5.09 0 0 1 2.837-2.771c1.913-.792 6.531-.594 8.708-.594 2.111 0 6.729-.198 8.708.594 1.253.462 2.243 1.517 2.771 2.771.792 1.979.594 6.597.594 8.708 0 2.177.198 6.795-.594 8.708z" style="fill:var(--color1, #fff)"/>
    </symbol>
    <symbol id="icon-logo" viewBox="0 0 32 32">
      <path fill="none" stroke="#7a9ca5" stroke-width="2.353" d="M30.353 16c0 7.927-6.426 14.353-14.353 14.353S1.647 23.927 1.647 16 8.073 1.647 16 1.647 30.353 8.073 30.353 16z" style="stroke:var(--color3, #7a9ca5)"/>
      <path fill="none" stroke="#7a9ca5" stroke-linecap="round" stroke-linejoin="round" stroke-width="2.353" d="M23.78 11.938c.118 1.228-.326 2.459-1.235 3.423l-5.442 5.785-7.496.721-.631-6.555 5.451-5.778c.909-.964 2.209-1.581 3.613-1.716l4.911.118.829 4.002zM19.294 11.765 5.176 25.883M20.235 17.412h-6.588M19.294 11.765h-6.588" style="stroke:var(--color3, #7a9ca5)"/>
    </symbol>
    <symbol id="icon-mail-sixth" viewBox="0 0 32 32">
      <path fill="none" stroke="#5c8692" stroke-linecap="round" stroke-linejoin="round" stroke-width="2.667" d="M5.333 5.333h21.333c1.467 0 2.667 1.2 2.667 2.667v16c0 1.467-1.2 2.667-2.667 2.667H5.333A2.675 2.675 0 0 1 2.666 24V8c0-1.467 1.2-2.667 2.667-2.667z" style="stroke:var(--color2, #5c8692)"/>
      <path fill="none" stroke="#5c8692" stroke-linecap="round" stroke-linejoin="round" stroke-width="2.667" d="M29.333 8 16 17.333 2.667 8" style="stroke:var(--color2, #5c8692)"/>
    </symbol>
    <symbol id="icon-phone-sixth" viewBox="0 0 32 32">
      <path fill="none" stroke="#5c8692" stroke-linecap="round" stroke-linejoin="round" stroke-width="2.667" d="M29.334 22.56v4a2.67 2.67 0 0 1-1.812 2.537 2.672 2.672 0 0 1-1.094.13 26.398 26.398 0 0 1-11.507-4.093 25.988 25.988 0 0 1-8-8 26.382 26.382 0 0 1-4.093-11.56 2.657 2.657 0 0 1 .687-2.038 2.664 2.664 0 0 1 1.967-.868h4a2.67 2.67 0 0 1 2.667 2.294 17.16 17.16 0 0 0 .933 3.747 2.675 2.675 0 0 1-.6 2.814l-1.693 1.693a21.333 21.333 0 0 0 8 8l1.693-1.693a2.661 2.661 0 0 1 2.814-.6c1.21.451 2.467.765 3.747.933a2.665 2.665 0 0 1 2.293 2.707z" style="stroke:var(--color2, #5c8692)"/>
    </symbol>
    <symbol id="icon-reservation" viewBox="0 0 32 32">
      <path fill="none"  stroke-linecap="round" stroke-linejoin="round" stroke-width="3.556" d="M25.578 5.333H6.911A2.667 2.667 0 0 0 4.244 8v18.667a2.667 2.667 0 0 0 2.667 2.667h18.667a2.667 2.667 0 0 0 2.667-2.667V8a2.667 2.667 0 0 0-2.667-2.667zM21.578 2.667V8M10.911 2.667V8M4.245 13.333h24" />
    </symbol>
    <symbol id="icon-sixth-icon" viewBox="0 0 32 32">
      <path fill="none" stroke="#1e2c30" stroke-width=".356" d="M.178.178h31.644v31.644H.178V.178z" style="stroke:var(--color4, #1e2c30)"/>
      <path fill="#5c8692" d="M1.778 1.778h28.444v28.444H1.778V1.778z" style="fill:var(--color2, #5c8692)"/>
      <path fill="none" stroke="#fff" stroke-linecap="round" stroke-linejoin="round" stroke-width="1.067" d="m20.978 12.8-6.844 6.756-3.111-3.071" style="stroke:var(--color1, #fff)"/>
    </symbol>
    <symbol id="icon-sixth-user" viewBox="0 0 32 32">
      <path fill="none" stroke="#5c8692" stroke-linecap="round" stroke-linejoin="round" stroke-width="2.667" d="M26.667 28v-2.667A5.332 5.332 0 0 0 21.334 20H10.667a5.332 5.332 0 0 0-5.333 5.333V28M16 14.667A5.333 5.333 0 1 0 16 4a5.333 5.333 0 0 0 0 10.667z" style="stroke:var(--color2, #5c8692)"/>
    </symbol>
    <symbol id="icon-star" viewBox="0 0 32 32">
      <path fill="#fff" d="m15.451 22.323 7.499 4.476-1.99-8.436 6.626-5.676-8.725-.732-3.41-7.956-3.41 7.956-8.725.732 6.626 5.676-1.99 8.436 7.499-4.476z" style="fill:var(--color1, #fff)"/>
    </symbol>
    <symbol id="icon-telephone-logo" viewBox="0 0 32 32">
      <path fill="none" stroke="#7a9ca5" stroke-linecap="round" stroke-linejoin="round" stroke-width="2.783" d="M19.392 6.957a6.956 6.956 0 0 1 5.496 5.496l-5.496-5.496zm0-5.566a12.526 12.526 0 0 1 11.061 11.047L19.392 1.391zm9.67 22.15v4.174a2.78 2.78 0 0 1-3.033 2.782 27.533 27.533 0 0 1-12.007-4.271 27.121 27.121 0 0 1-8.348-8.348A27.53 27.53 0 0 1 1.403 5.815a2.787 2.787 0 0 1 .716-2.127 2.775 2.775 0 0 1 2.053-.906h4.174a2.788 2.788 0 0 1 2.783 2.393c.176 1.336.503 2.647.974 3.91a2.783 2.783 0 0 1-.626 2.935L9.71 13.787a22.27 22.27 0 0 0 8.348 8.348l1.767-1.767a2.783 2.783 0 0 1 2.935-.626c1.262.471 2.574.798 3.91.974a2.785 2.785 0 0 1 2.393 2.825z" style="stroke:var(--color3, #7a9ca5)"/>
    </symbol>
    <symbol id="icon-third-icon1" viewBox="0 0 32 32">
      <path fill="#7a9ca5" d="M21.036 12.852c-.449-.292-1.264-.465-2.182-.465s-1.732.174-2.181.465a.479.479 0 1 0 .523.804c.239-.155.844-.311 1.659-.311s1.42.156 1.659.311a.482.482 0 0 0 .664-.14.48.48 0 0 0-.141-.664zM18.659 19.33a.478.478 0 0 0-.677-.038c-.289.258-1.014.518-1.982.518s-1.693-.261-1.982-.518a.48.48 0 1 0-.639.715c.534.478 1.515.763 2.621.763s2.087-.285 2.621-.763a.479.479 0 0 0 .038-.677zM14.865 15.101a.478.478 0 0 0-.677-.031c-.139.126-.524.263-1.042.263s-.904-.136-1.042-.263a.478.478 0 1 0-.646.708c.353.322.984.513 1.689.513s1.337-.192 1.689-.514a.48.48 0 0 0 .031-.677zM15.326 12.852c-.449-.292-1.264-.465-2.181-.465s-1.732.174-2.181.465a.48.48 0 1 0 .522.803c.239-.155.844-.311 1.659-.311s1.42.156 1.659.311a.479.479 0 1 0 .522-.804zM20.574 15.101a.478.478 0 0 0-.677-.031c-.139.126-.524.263-1.042.263s-.904-.136-1.042-.263a.478.478 0 1 0-.646.708c.353.322.984.513 1.689.513s1.336-.192 1.689-.514a.478.478 0 0 0 .031-.677z" style="fill:var(--color3, #7a9ca5)"/>
      <path fill="#7a9ca5" d="M25.296 28.522c-.847-.72-2.002-1.116-3.252-1.116-1.645 0-2.783-.367-3.262-.557v-2.175a8.214 8.214 0 0 0 5.097-5.489 3.143 3.143 0 0 0 2.744-3.11 3.155 3.155 0 0 0-2.442-3.058v-1.062c.554-1.942.52-3.85.391-5.115a15.516 15.516 0 0 0-.264-1.688 7.406 7.406 0 0 0-.158-.639.435.435 0 0 0-.03-.083c-.531-1.126-1.476-2.086-2.686-2.805a.514.514 0 0 0-.078-.046C19.87.717 17.995.214 16.001.214c-1.57 0-3.106.311-4.44.898a.48.48 0 0 0 .386.878c1.214-.534 2.616-.817 4.054-.817 1.591 0 3.091.342 4.335.941-.583.502-1.277.985-2.107 1.466a.48.48 0 0 0 .481.83c1.005-.583 1.829-1.174 2.51-1.798.832.545 1.495 1.224 1.916 2.001l-.051.079-.035.052C22 6.274 19.771 7.74 16.546 9.021a18.415 18.415 0 0 1-.269.106c-3.207 1.239-6.479 1.967-7.631 2.203a12.23 12.23 0 0 1-.335-3.046c.399-.08.796-.195 1.184-.306.304-.088.618-.179.922-.249l.015-.004c1.972-.522 3.912-1.227 6.293-2.287a.48.48 0 1 0-.39-.876c-2.328 1.037-4.223 1.726-6.14 2.234-.326.076-.651.17-.965.26-.3.087-.59.17-.873.237.104-1.34.359-2.303.411-2.487.332-.689.857-1.314 1.562-1.862a.48.48 0 1 0-.588-.758c-.837.65-1.462 1.404-1.858 2.244a.406.406 0 0 0-.025.066c-.046.151-1.102 3.727-.036 7.459v1.062a3.152 3.152 0 0 0-2.442 3.056 3.144 3.144 0 0 0 2.744 3.11 8.216 8.216 0 0 0 5.097 5.489v2.175c-.48.191-1.618.558-3.262.558-1.25 0-2.405.396-3.252 1.116-.855.726-1.327 1.712-1.327 2.774 0 .265.215.48.48.48h20.287a.48.48 0 0 0 .48-.48c0-1.062-.472-2.048-1.327-2.775zm-1.195-10.406c.052-.376.079-.756.079-1.135v-2.968a2.19 2.19 0 0 1 1.483 2.062c0 .987-.664 1.825-1.568 2.089l.006-.049zM6.336 16.075c0-.946.62-1.77 1.483-2.062v2.968c0 .38.027.759.079 1.135l.006.049a2.182 2.182 0 0 1-1.568-2.089zM23.315 5.959l.033-.038.089-.104.017-.02c.218 1.213.44 3.345-.1 5.534a52.769 52.769 0 0 1-5.982-1.608c2.741-1.134 4.731-2.394 5.943-3.765zM8.894 18.27l-.003-.015a7.158 7.158 0 0 1-.112-1.274v-4.697a45.53 45.53 0 0 0 6.035-1.611l.027-.009h2.318a53.775 53.775 0 0 0 6.062 1.619v4.697c0 .426-.038.854-.113 1.274l-.002.015a7.245 7.245 0 0 1-5.121 5.655l-.013.004a7.3 7.3 0 0 1-1.972.274 7.115 7.115 0 0 1-1.982-.276 7.244 7.244 0 0 1-5.124-5.656zM6.381 30.817c.114-.592.44-1.136.943-1.564.674-.573 1.608-.888 2.631-.888 2.469 0 3.907-.749 3.967-.781a.48.48 0 0 0 .255-.424v-2.203c.001.183 1.725.204 1.822.204.613 0 1.224-.068 1.822-.204v2.204c0 .178.098.34.255.424.06.032 1.498.781 3.967.781 1.023 0 1.957.315 2.631.888.504.428.829.972.943 1.564l-19.235-.001z" style="fill:var(--color3, #7a9ca5)"/>
    </symbol>
    <symbol id="icon-third-icon2" viewBox="0 0 32 32">
      <path fill="#7a9ca5" d="M5.299 25.113a.605.605 0 0 1-.786.34c-2.317-.92-3.722-2.102-4.066-3.418a.606.606 0 1 1 1.172-.306c.238.913 1.425 1.836 3.342 2.598.31.123.462.476.339.787zm2.058-6.352a.605.605 0 0 0 .853-.068.609.609 0 0 0-.068-.856c-.3-.256-.594-.528-.873-.808-2.661-2.667-4.055-6.056-3.632-8.758 1.135-.178 2.392-.034 3.665.392a.619.619 0 0 0 .174.06c1.695.601 3.411 1.695 4.901 3.188.375.375.732.774 1.061 1.184.21.261.591.302.851.092s.301-.592.092-.853a16.131 16.131 0 0 0-1.148-1.281c-1.53-1.534-3.296-2.683-5.07-3.361-.043-1.098.142-2.099.535-2.889 1 .218 2.035.827 2.965 1.751a15.094 15.094 0 0 0-.308 1.603.606.606 0 1 0 1.2.164c.407-2.973 1.695-5.469 3.477-6.773 1.782 1.304 3.07 3.799 3.477 6.772a.606.606 0 1 0 1.2-.164 15.008 15.008 0 0 0-.308-1.601c.93-.923 1.966-1.533 2.965-1.751.392.79.578 1.792.535 2.889-1.775.679-3.54 1.828-5.07 3.361-.406.407-.792.837-1.148 1.281a.607.607 0 0 0 .944.761c.329-.41.686-.808 1.061-1.184 1.49-1.493 3.205-2.588 4.9-3.188a.614.614 0 0 0 .175-.06c1.273-.425 2.53-.57 3.665-.392.422 2.702-.971 6.092-3.632 8.758-.279.28-.573.551-.873.808-.254.217-.285.6-.069.856s.599.286.854.069c.325-.277.643-.571.945-.874 3.076-3.082 4.6-7.113 3.884-10.269a.605.605 0 0 0-.456-.457c-1.224-.279-2.579-.219-3.961.14-.013-1.336-.331-2.553-.92-3.49a.605.605 0 0 0-.582-.279c-1.216.141-2.474.748-3.605 1.73-.782-2.19-2.063-3.956-3.656-4.96a.606.606 0 0 0-.645 0c-1.592 1.004-2.874 2.771-3.656 4.96-1.131-.982-2.387-1.589-3.605-1.73a.603.603 0 0 0-.581.279c-.588.937-.905 2.153-.918 3.49-1.381-.359-2.737-.419-3.961-.14a.608.608 0 0 0-.456.457c-.717 3.156.808 7.186 3.884 10.269.301.302.619.595.944.873zm-.287 4.745a.607.607 0 0 0-.372-.773c-1.827-.64-2.918-1.449-2.918-2.164 0-.462.475-.984 1.338-1.47.291-.164.395-.534.231-.826s-.533-.396-.824-.231c-1.298.731-1.956 1.581-1.956 2.528 0 1.311 1.29 2.454 3.729 3.31a.605.605 0 0 0 .771-.374zm18.172-.73a.607.607 0 0 0 .39 1.149c2.526-.859 3.862-2.02 3.862-3.355 0-.912-.613-1.737-1.822-2.451a.607.607 0 0 0-.615 1.046c.79.466 1.225.966 1.225 1.405-.001.724-1.165 1.569-3.04 2.207zm-3.206 4.434c0 .614-.499 1.115-1.113 1.115a.606.606 0 0 0 0 1.214 2.329 2.329 0 0 0 2.324-2.329.606.606 0 1 0-1.211 0zm9.084-5.916a.606.606 0 0 0-.739.434c-.238.914-1.424 1.836-3.341 2.598a.608.608 0 0 0 .223 1.171c.074 0 .15-.014.223-.043 2.317-.921 3.723-2.103 4.067-3.419a.607.607 0 0 0-.434-.74zm-10.76.264a.599.599 0 0 1-.598.599.606.606 0 0 0 0 1.214c.998 0 1.809-.813 1.809-1.813a.606.606 0 1 0-1.212 0zm-1.73-3.875h.158a.606.606 0 0 0 0-1.214h-.158a.606.606 0 0 0 0 1.214zm6.255 6.956a4.514 4.514 0 0 1-3.656 7.144H10.833a4.514 4.514 0 0 1-4.504-4.513c0-1.651.913-3.162 2.33-3.949a3.652 3.652 0 0 1 2.126-4.908 2.813 2.813 0 0 1 2.311-4.409h5.871a2.813 2.813 0 0 1 0 5.626h-5.871c-.377 0-.736-.075-1.066-.21a2.432 2.432 0 1 0-.043 4.866h8.086a2.429 2.429 0 0 0 1.546-4.302c-.257-.214-.292-.597-.079-.855s.596-.293.853-.079a3.642 3.642 0 0 1-2.32 6.448h-8.086a3.628 3.628 0 0 1-2.659-1.16 3.316 3.316 0 0 0-1.789 2.933 3.3 3.3 0 0 0 3.293 3.3h10.396a3.3 3.3 0 0 0 3.293-3.299c0-.692-.214-1.356-.62-1.92-.195-.272-.134-.651.137-.847s.649-.135.845.137zm-13.386-7.823a1.6 1.6 0 0 0 1.596 1.6h5.871a1.6 1.6 0 0 0 0-3.2h-5.871a1.6 1.6 0 0 0-1.596 1.6z" style="fill:var(--color3, #7a9ca5)"/>
    </symbol>
    <symbol id="icon-third-icon3" viewBox="0 0 32 32">
      <path fill="#7a9ca5" d="M7.639 12.963a.625.625 0 1 0 0-1.25.625.625 0 0 0 0 1.25z" style="fill:var(--color3, #7a9ca5)"/>
      <path fill="#7a9ca5" d="M28.766 11.683a2.106 2.106 0 0 0-1.595-.71h-5.053v-1.07a2.845 2.845 0 0 0-2.841-2.841h-.489v-.08c0-1.12-.888-2.035-1.996-2.081V3.836a4.158 4.158 0 0 0 1.206-.47c.63-.382.902-.844 1.02-1.163.263-.714-.014-1.533-.63-1.863a1.169 1.169 0 0 0-.553-.141c-.418 0-.81.232-1.047.612-.12.078-.578.315-1.745.315h-2.908c-1.477 0-2.395 1.01-2.395 2.636 0 .797.574 1.446 1.28 1.446.629 0 1.154-.515 1.26-1.191h1.397v.885a2.085 2.085 0 0 0-1.996 2.081v.08h-.49A2.845 2.845 0 0 0 8.35 9.904v.042H6.519c-.812 0-1.473.661-1.473 1.473v2.784c-.444.38-.726.943-.726 1.571v.918a3.564 3.564 0 0 0-1.489 2.663c-.031.483-.054.996-.065 1.521a.48.48 0 1 0 .963.022c.011-.512.033-1.009.064-1.48a2.602 2.602 0 0 1 1.497-2.183l.017-.008a2.606 2.606 0 0 1 1.068-.233h2.526c.367 0 .735.081 1.068.233l.017.008a2.64 2.64 0 0 1 1.497 2.183c.049.731.073 1.483.073 2.233 0 .355-.01.709-.017 1.064l-.001.038c-.004.125-.353.471-.426.601a3.36 3.36 0 0 0-.288.67c-.163.53-.197 1.088-.207 1.639-.014.825.068 1.653.25 2.458l.002.011a2.1 2.1 0 0 1-1.984 1.391H6.391a2.127 2.127 0 0 1-2.068-1.682c-.328-1.546-.524-3.242-.584-5.04a.481.481 0 0 0-.962.032c.062 1.855.265 3.607.604 5.208a3.096 3.096 0 0 0 3.01 2.446h2.495c.938 0 1.79-.415 2.36-1.1.304.81.714 1.562 1.221 2.226a.483.483 0 0 0 .383.189h9.091c.15 0 .292-.07.383-.189a8.05 8.05 0 0 0 .415-.598h4.142a.482.482 0 0 0 .482-.482v-3.977l1.144-8.262a.482.482 0 0 0-.954-.132l-.915 6.609H24.12a3.547 3.547 0 0 0-2.14-2.94l-.017-.127-1.2-8.668a.972.972 0 0 1-.008-.093v-.005c-.009-.312.159-.593.402-.777.196-.148.452-.223.696-.223h5.319c.341 0 .658.138.868.38a.895.895 0 0 1 .222.718l-.443 3.198a.482.482 0 0 0 .954.132l.443-3.198a1.846 1.846 0 0 0-.451-1.483zM12.135 3.052c-.222 0-.498.025-.658.201-.125.138-.14.331-.14.508 0 .284-.167.482-.317.482s-.317-.198-.317-.482c0-1.455.897-1.672 1.431-1.672h2.908c.449 0 .916-.028 1.362-.125.385-.083.815-.207 1.097-.496.103-.106.153-.306.333-.306.032 0 .064.009.096.026.17.091.284.402.181.681-.083.225-.441.86-1.87 1.094l-.011.001a7.392 7.392 0 0 1-1.189.087l-2.908-.001zm3.692.932v.914h-1.186v-.883c.001.021 1.186-.022 1.186-.031zm-2.062 1.878h2.939c.617 0 1.12.502 1.12 1.12v.08h-5.178v-.08c0-.617.502-1.12 1.12-1.12zM6.01 11.42v-.002a.51.51 0 0 1 .509-.509h2.239l.032.002.006.001c.565.041.471.699.471 1.094v1.737a2.074 2.074 0 0 0-.377-.035H6.387c-.117 0-.253.034-.376.03-.036-.767-.001-1.547-.001-2.316zm3.984 4.782c0-.14-.957-.172-1.092-.172H6.378c-.37 0-.741.059-1.092.172v-.43c0-.596.507-1.104 1.104-1.104h2.503c.362 0 .712.188.915.488.211.313.188.686.188 1.046zm13.488 13.393a.993.993 0 0 1 .017-.054c.167-.473.317-.954.426-1.444.173-.774.257-1.571.248-2.364h2.226v4.317h-3.134c.083.001.174-.314.217-.454zm-.517-5.504H20.69a.482.482 0 1 0 0 .964h2.487l.005.062c.15 1.996-.313 4.077-1.484 5.721h-8.604a8.106 8.106 0 0 1-1.266-2.85 9.422 9.422 0 0 1-.214-2.933h7.149a.482.482 0 1 0 0-.964h-6.938c.125-.296.305-.567.535-.801a2.643 2.643 0 0 1 1.863-.784h6.346a2.618 2.618 0 0 1 2.397 1.585zm-1.811-13.004c0-.003-.575.298-.63.341-.946.754-.702 1.855-.558 2.895l1.002 7.241-.01-.001a3.01 3.01 0 0 0-.202-.016 3.893 3.893 0 0 0-.189-.006h-6.345a3.597 3.597 0 0 0-1.329.255c-.051.02-.372.132-.373.174l.001-.32c0-.772-.025-1.544-.075-2.297a3.592 3.592 0 0 0-1.2-2.439c-.036-.032-.289-.195-.289-.229v-.914c0-.594-.268-1.184-.726-1.573v-2.782c0-.035-.002-.069-.004-.102l-.002-.021a1.476 1.476 0 0 0-.912-1.241v-.151a1.88 1.88 0 0 1 1.878-1.878h8.084a1.88 1.88 0 0 1 1.878 1.878l.001 1.185z" style="fill:var(--color3, #7a9ca5)"/>
    </symbol>
    <symbol id="icon-twi" viewBox="0 0 32 32">
      <path d="M28.671 9.882C29.847 9 30.906 7.941 31.73 6.706a11.547 11.547 0 0 1-3.529.941 6.037 6.037 0 0 0 2.706-3.412 13.03 13.03 0 0 1-3.882 1.529 6.177 6.177 0 0 0-4.529-1.941 6.175 6.175 0 0 0-6.176 6.176c0 .471.059.941.176 1.412A17.92 17.92 0 0 1 3.731 4.94c-.529.882-.824 1.941-.824 3.118 0 2.118 1.059 4 2.765 5.118-1-.059-2-.294-2.824-.765v.059c0 3 2.118 5.471 4.941 6.059-.471.118-1.059.235-1.588.235-.412 0-.765-.059-1.176-.118.765 2.471 3.059 4.235 5.765 4.294-2.118 1.647-4.765 2.647-7.647 2.647-.529 0-1-.059-1.471-.118 2.706 1.765 5.941 2.765 9.471 2.765 11.353 0 17.529-9.353 17.529-17.529v-.824z"/>
    </symbol>
    <symbol id="icon-velcome-vector" viewBox="0 0 32 32">
      <path fill="#5c8692" d="m32 16-3.549-4.044.495-5.353-5.251-1.193L20.946.785l-4.945 2.124L11.056.785 8.307 5.41 3.056 6.588l.495 5.353-3.549 4.058 3.549 4.044-.495 5.367 5.251 1.193 2.749 4.625 4.945-2.138 4.945 2.124 2.749-4.625 5.251-1.193-.495-5.353L32 15.999zm-14.545 7.273h-2.909v-2.909h2.909v2.909zm0-5.818h-2.909V8.728h2.909v8.727z" style="fill:var(--color2, #5c8692)"/>
    </symbol>
    <symbol id="icon-border" viewBox="0 0 25 32">
<path fill="none" stroke="#fff" style="stroke: var(--color1, #fff)" stroke-linejoin="miter" stroke-linecap="butt" stroke-miterlimit="4" stroke-width="0.4087" d="M-0.654 1.839h22.519v26.687h-22.519v-26.687z"></path>
</symbol>
<symbol id="icon-star_half" viewBox="0 0 30 32">
<path fill="#fff" style="fill: var(--color1, #fff)" d="M27.796 12.687l-8.725-0.744-3.41-7.944-3.41 7.956-8.725 0.732 6.626 5.676-1.99 8.436 7.499-4.476 7.499 4.476-1.978-8.436 6.613-5.676zM15.661 20.079v-11.16l2.075 4.848 5.315 0.456-4.029 3.456 1.213 5.136-4.575-2.736z"></path>
</symbol>
<symbol id="icon-dots" viewBox="0 0 21 32">
<path fill="#5c8692" style="fill: var(--color1, #5c8692)" d="M20.87 8c0 1.153-0.934 2.087-2.087 2.087s-2.087-0.934-2.087-2.087c0-1.153 0.934-2.087 2.087-2.087s2.087 0.934 2.087 2.087z"></path>
<path fill="#5c8692" style="fill: var(--color1, #5c8692)" d="M12.522 8c0 1.153-0.934 2.087-2.087 2.087s-2.087-0.934-2.087-2.087c0-1.153 0.934-2.087 2.087-2.087s2.087 0.934 2.087 2.087z"></path>
<path fill="#5c8692" style="fill: var(--color1, #5c8692)" d="M4.174 8c0 1.153-0.934 2.087-2.087 2.087s-2.087-0.934-2.087-2.087c0-1.153 0.934-2.087 2.087-2.087s2.087 0.934 2.087 2.087z"></path>
</symbol>
  </defs>
</svg>
